<svg width="117" height="99" viewBox="0 0 117 99" fill="none" xmlns="http://www.w3.org/2000/svg">
<path d="M105.3 13.86C104.055 13.8605 102.828 14.1639 101.722 14.7449C100.616 15.3259 99.6628 16.1675 98.943 17.1993C98.03 16.1495 96.9076 15.3088 95.6502 14.7331C94.3929 14.1574 93.0293 13.8598 91.65 13.86H87.75C84.1311 13.8642 80.6615 15.3257 78.1025 17.9241C75.5435 20.5224 74.1041 24.0454 74.1 27.72V34.8199L50.6019 10.9603C48.6839 9.01785 46.0849 7.92781 43.3759 7.92961C40.6669 7.93141 38.0693 9.02492 36.1537 10.97C34.2382 12.915 33.1612 15.5525 33.1595 18.3032C33.1577 21.0539 34.2312 23.6928 36.1443 25.6404L66.1142 56.0714L63.236 69.2227L19.1874 22.6328L11.9959 6.56818C11.1168 4.61142 9.7027 2.95219 7.92181 1.78782C6.14092 0.623438 4.06815 0.0029014 1.95 8.18421e-10C1.69392 -7.47506e-06 1.44035 0.0512016 1.20376 0.150703C0.967171 0.250205 0.752201 0.39605 0.571125 0.579912C0.39005 0.763773 0.246414 0.98205 0.14842 1.22228C0.0504258 1.46251 -7.3618e-06 1.71998 8.06021e-10 1.98V33.66C-7.3618e-06 33.92 0.0504258 34.1775 0.14842 34.4177C0.246414 34.658 0.39005 34.8762 0.571125 35.0601C0.752201 35.2439 0.967171 35.3898 1.20376 35.4893C1.44035 35.5888 1.69392 35.64 1.95 35.64H6.77425L40.0982 84.8569C42.9687 89.0961 46.7863 92.5856 51.2391 95.04H27.3V99H103.35V95.04H81.8778C87.9323 91.7124 92.7757 86.5004 95.696 80.1701C99.4406 71.9913 101.387 63.0829 101.4 54.0635V50.7832C103.042 52.855 105.121 54.5266 107.483 55.6752C109.845 56.8237 112.431 57.4199 115.05 57.42C115.306 57.42 115.56 57.3688 115.796 57.2693C116.033 57.1698 116.248 57.0239 116.429 56.8401C116.61 56.6562 116.754 56.4379 116.852 56.1977C116.95 55.9575 117 55.7 117 55.44V25.74C116.996 22.5903 115.763 19.5707 113.569 17.3435C111.376 15.1163 108.402 13.8636 105.3 13.86ZM85.8 41.58H83.85C82.299 41.5782 80.8121 40.9519 79.7153 39.8383C78.6186 38.7247 78.0017 37.2148 78 35.64V27.72C77.9998 27.055 78.0655 26.3916 78.1962 25.74H83.85V29.7C83.85 29.96 83.9004 30.2175 83.9984 30.4577C84.0964 30.6979 84.2401 30.9162 84.4212 31.1L92.2212 39.02C92.4022 39.2039 92.6172 39.3498 92.8538 39.4493C93.0904 39.5488 93.3439 39.6 93.6 39.6H97.5V45.54H87.75V43.56C87.75 43.3 87.6996 43.0425 87.6016 42.8023C87.5036 42.562 87.36 42.3438 87.1789 42.1599C86.9978 41.9761 86.7828 41.8302 86.5462 41.7307C86.3097 41.6312 86.0561 41.58 85.8 41.58ZM87.75 17.82H91.65C93.201 17.8218 94.688 18.4481 95.7847 19.5617C96.8814 20.6753 97.4983 22.1852 97.5 23.76V35.64H94.4077L87.75 28.8799V23.76C87.75 23.5 87.6996 23.2425 87.6016 23.0023C87.5036 22.762 87.36 22.5438 87.1789 22.3599C86.9978 22.1761 86.7828 22.0302 86.5462 21.9307C86.3097 21.8312 86.0561 21.78 85.8 21.78H79.9553C80.8625 20.5506 82.0392 19.5527 83.3921 18.8654C84.7451 18.178 86.2371 17.8201 87.75 17.82ZM37.05 18.3004C37.05 17.0305 37.4209 15.7892 38.1157 14.7334C38.8105 13.6776 39.798 12.8547 40.9534 12.3687C42.1088 11.8828 43.3801 11.7556 44.6067 12.0034C45.8333 12.2511 46.9599 12.8625 47.8443 13.7604L80.0481 46.4597C81.233 47.6639 81.8984 49.2967 81.898 50.999C81.8976 52.7013 81.2314 54.3337 80.0459 55.5374C78.8605 56.7411 77.2528 57.4175 75.5763 57.4179C73.8998 57.4183 72.2918 56.7427 71.1057 55.5396L38.9019 22.8403C38.3129 22.2455 37.846 21.538 37.5281 20.7587C37.2102 19.9794 37.0477 19.1439 37.05 18.3004ZM50.9904 61.9887L37.5567 74.1134L10.3258 33.8954L17.5216 26.5889L50.9904 61.9887ZM3.9 4.23711C4.89546 4.52537 5.81744 5.02962 6.60224 5.71501C7.38704 6.4004 8.01596 7.25061 8.44556 8.2069L15.2156 23.3301L6.99234 31.68H3.9V4.23711ZM66.5773 95.04C61.9975 95.0406 57.4862 93.9096 53.433 91.7446C49.3797 89.5797 45.9061 86.4458 43.3119 82.6134L39.7834 77.4021L53.6933 64.8475L62.9433 74.6311C63.1122 74.809 63.3125 74.953 63.5337 75.0558L63.5328 75.0577L87.0613 86.0841C84.4211 88.9061 81.2444 91.1549 77.7235 92.6943C74.2026 94.2337 70.4107 95.0317 66.5773 95.04ZM97.5 54.0635C97.4878 62.5043 95.6663 70.8413 92.1619 78.4954C91.4491 80.0461 90.5998 81.5283 89.6243 82.9238L66.5946 72.1312L69.4079 59.2767C70.9247 60.4424 72.7318 61.1552 74.6259 61.335C76.52 61.5147 78.4258 61.1543 80.1292 60.2942C81.8325 59.4341 83.2657 58.1085 84.2675 56.4665C85.2693 54.8245 85.8001 52.9312 85.8 50.9996C85.7999 50.4978 85.7644 49.9967 85.6939 49.5H97.5V54.0635ZM113.1 53.319C109.853 52.8385 106.884 51.1883 104.736 48.6696C102.588 46.1509 101.404 42.9318 101.4 39.6V21.78C101.401 20.7301 101.812 19.7236 102.544 18.9812C103.275 18.2388 104.266 17.8212 105.3 17.82C107.368 17.8224 109.351 18.6575 110.813 20.1423C112.275 21.6271 113.098 23.6402 113.1 25.74V53.319Z" fill="black"/>
<path d="M23.4 95.04H19.5V99H23.4V95.04Z" fill="black"/>
<path d="M111.15 95.04H107.25V99H111.15V95.04Z" fill="black"/>
</svg>
