<svg width="118" height="104" viewBox="0 0 118 104" fill="none" xmlns="http://www.w3.org/2000/svg">
<path d="M116.271 78.4394C117.226 78.4394 118 77.6498 118 76.6752V73.2633C118 69.8141 115.42 67.0081 112.248 67.0081H109.451V63.3932C109.451 60.8638 107.434 58.806 104.956 58.806H91.0431C88.5648 58.806 86.5487 60.864 86.5487 63.3932V72.8072C74.1198 71.3274 58.6487 71.325 46.1988 72.8072V63.3932C46.1988 60.8638 44.1824 58.806 41.7044 58.806H40.6051C50.0808 52.9167 60.6779 44.9305 68.9405 37.1528L74.3661 44.7656C75.8259 46.8145 78.6443 47.2621 80.6446 45.7771L91.8962 37.4243C91.8962 37.4243 91.8962 37.4242 91.8962 37.424C93.9002 35.9364 94.3447 33.0618 92.887 31.016L90.8036 28.0926L93.0659 26.4133C95.6308 24.5089 96.1002 20.6908 94.1124 17.9014L84.7301 4.73608C82.7421 1.94725 79.0387 1.22675 76.4738 3.1309L74.2113 4.81065L72.1281 1.8875C70.6706 -0.158496 67.854 -0.611777 65.8496 0.875792L54.598 9.22866C52.594 10.7162 52.1495 13.5909 53.6072 15.6367L59.0326 23.2495C48.1255 29.5167 35.6154 38.8013 26.4018 47.4743L22.4108 41.8747C20.1632 38.7211 15.8148 38.0201 12.7253 40.3145L5.41811 45.739C2.32661 48.0346 1.64097 52.4691 3.88965 55.6246L4.53819 56.5347L2.27614 58.214C-0.339904 60.1558 -0.717642 63.9935 1.22958 66.7259L10.6119 79.8908C11.6385 81.3315 13.1429 82.2477 14.7475 82.4912V89.5428C14.7475 92.9919 17.3278 95.7981 20.4993 95.7981H23.2967V99.4129C23.2967 101.942 25.3131 104 27.791 104H41.7044C44.1826 104 46.1988 101.942 46.1988 99.4129V89.9998C51.1112 90.5832 56.6334 90.9499 62.3055 91.0663C62.3175 91.0668 62.3292 91.0668 62.341 91.0668C63.2795 91.0668 64.0497 90.3 64.0688 89.3379C64.0879 88.3638 63.3297 87.5582 62.3751 87.5387C56.656 87.421 51.1001 87.0454 46.1988 86.4472V76.3586C58.4267 74.8628 74.067 74.8317 86.5487 76.3586V86.4472C81.6478 87.0454 76.0917 87.421 70.3724 87.5387C69.418 87.5582 68.6595 88.3638 68.6786 89.3377C68.6978 90.3 69.4675 91.0668 70.4065 91.0668C70.4182 91.0668 70.4302 91.0668 70.442 91.0663C76.1142 90.9499 81.6365 90.5832 86.5487 89.9998V99.4129C86.5487 101.942 88.5651 104 91.0431 104H104.956C107.435 104 109.451 101.942 109.451 99.4129V95.7981H112.248C115.42 95.7981 118 92.9919 118 89.5428V84.9088C118 83.9343 117.226 83.1446 116.271 83.1446C115.317 83.1446 114.543 83.9343 114.543 84.9088V89.5428C114.543 91.0207 113.492 92.2695 112.248 92.2695H109.451V70.537H112.248C113.492 70.537 114.543 71.7856 114.543 73.2635V76.6755C114.543 77.6498 115.317 78.4394 116.271 78.4394ZM78.5072 5.98443C79.5127 5.23829 81.0827 5.61677 81.934 6.81195L91.3164 19.9773C92.1682 21.1723 92.038 22.8132 91.0322 23.5598L88.7699 25.2391C87.3694 23.2731 77.6685 9.66124 76.2449 7.6637L78.5072 5.98443ZM56.403 13.5615C56.0725 13.0974 56.1771 12.4202 56.6316 12.0827L67.8833 3.72955C68.3399 3.39106 69.0024 3.50044 69.332 3.96313C70.0317 4.94496 86.1557 27.5699 86.9907 28.7418C86.9912 28.7423 86.9914 28.7428 86.9919 28.7432L90.091 33.0916C90.4217 33.5557 90.3171 34.2329 89.8624 34.5705L78.6104 42.9236C78.1537 43.2623 77.4968 43.1602 77.1619 42.69C76.48 41.7334 57.226 14.7162 56.403 13.5615ZM61.0794 26.1221L66.8939 34.2807C57.9008 42.7996 45.2864 52.2171 34.2624 58.504L28.4488 50.3466C37.4177 41.85 50.0398 32.4177 61.0794 26.1221ZM14.7475 73.2633V78.8635C14.2333 78.668 13.7581 78.3063 13.4082 77.8151L4.02586 64.65C3.1351 63.4005 3.33422 61.792 4.31002 61.0675L6.57207 59.3882C6.84633 59.7733 8.9936 62.7861 15.0459 71.2789C14.8399 71.9472 14.7475 72.6369 14.7475 73.2633ZM23.2967 92.2693H20.4993C19.2557 92.2693 18.2047 91.0207 18.2047 89.5425C18.2047 87.9487 18.2047 74.9247 18.2047 73.263C18.2047 72.6467 18.4041 71.9813 18.7989 71.4586C19.269 70.835 19.9049 70.5365 20.4993 70.5365H23.2965L23.2967 92.2693ZM23.2967 63.393V67.0079H20.4993C20.3589 67.0079 20.2199 67.0152 20.0819 67.0262C20.0575 67.0281 20.033 67.03 20.0086 67.0324C18.9383 67.1312 17.951 67.5496 17.1275 68.2L6.68569 53.5485C5.55824 51.9669 5.90187 49.7433 7.45177 48.5925L14.759 43.168C16.302 42.0217 18.4917 42.3739 19.6147 43.9501C20.8733 45.716 28.8549 56.9158 30.2017 58.8056H27.7908C25.3131 58.8056 23.2967 60.8636 23.2967 63.393ZM42.7417 99.4126C42.7417 99.9863 42.2668 100.471 41.7046 100.471H27.7913C27.2292 100.471 26.7542 99.9863 26.7542 99.4126C26.7542 97.7522 26.7542 64.4757 26.7542 63.3932C26.7542 62.8195 27.2292 62.3347 27.7913 62.3347C31.3089 62.3347 33.2511 62.3347 34.2621 62.3347C34.9909 62.3347 35.2361 62.3347 35.2382 62.3347C36.2488 62.3347 38.1898 62.3347 41.7046 62.3347C42.2668 62.3347 42.7417 62.8195 42.7417 63.3932C42.7417 65.5763 42.7417 98.0702 42.7417 99.4126ZM105.994 99.4126C105.994 99.9863 105.519 100.471 104.957 100.471H91.0433C90.4812 100.471 90.0062 99.9863 90.0062 99.4126V63.3932C90.0062 62.8195 90.4812 62.3347 91.0433 62.3347H104.957C105.519 62.3347 105.994 62.8195 105.994 63.3932C105.994 65.5662 105.994 98.2468 105.994 99.4126Z" fill="black"/>
</svg>
