<svg width="101" height="101" viewBox="0 0 101 101" fill="none" xmlns="http://www.w3.org/2000/svg">
<path d="M59.5034 2.88571H55.2181C54.8355 2.88571 54.4685 2.7337 54.1979 2.46311C53.9273 2.19252 53.7753 1.82553 53.7753 1.44286C53.7753 1.06019 53.9273 0.693191 54.1979 0.422603C54.4685 0.152015 54.8355 0 55.2181 0H59.5034C59.8861 0 60.2531 0.152015 60.5237 0.422603C60.7943 0.693191 60.9463 1.06019 60.9463 1.44286C60.9463 1.82553 60.7943 2.19252 60.5237 2.46311C60.2531 2.7337 59.8861 2.88571 59.5034 2.88571Z" fill="black"/>
<path d="M95.2286 77.9143H5.77143C4.24075 77.9143 2.77277 77.3062 1.69041 76.2239C0.60806 75.1415 0 73.6735 0 72.1429V5.77143C0 4.24075 0.60806 2.77277 1.69041 1.69041C2.77277 0.60806 4.24075 0 5.77143 0H30.8339C31.2165 0 31.5835 0.152015 31.8541 0.422603C32.1247 0.693191 32.2767 1.06019 32.2767 1.44286C32.2767 1.82553 32.1247 2.19252 31.8541 2.46311C31.5835 2.7337 31.2165 2.88571 30.8339 2.88571H5.77143C5.00609 2.88571 4.2721 3.18974 3.73092 3.73092C3.18974 4.2721 2.88571 5.00609 2.88571 5.77143V72.1429C2.88571 72.9082 3.18974 73.6422 3.73092 74.1834C4.2721 74.7245 5.00609 75.0286 5.77143 75.0286H95.2286C95.9939 75.0286 96.7279 74.7245 97.2691 74.1834C97.8103 73.6422 98.1143 72.9082 98.1143 72.1429V5.77143C98.1143 5.00609 97.8103 4.2721 97.2691 3.73092C96.7279 3.18974 95.9939 2.88571 95.2286 2.88571H69.6034C69.2208 2.88571 68.8538 2.7337 68.5832 2.46311C68.3126 2.19252 68.1606 1.82553 68.1606 1.44286C68.1606 1.06019 68.3126 0.693191 68.5832 0.422603C68.8538 0.152015 69.2208 0 69.6034 0H95.2286C96.7592 0 98.2272 0.60806 99.3096 1.69041C100.392 2.77277 101 4.24075 101 5.77143V72.1429C101 73.6735 100.392 75.1415 99.3096 76.2239C98.2272 77.3062 96.7592 77.9143 95.2286 77.9143Z" fill="black"/>
<path d="M45.1181 2.88571H40.9339C40.5512 2.88571 40.1842 2.7337 39.9136 2.46311C39.643 2.19252 39.491 1.82553 39.491 1.44286C39.491 1.06019 39.643 0.693191 39.9136 0.422603C40.1842 0.152015 40.5512 0 40.9339 0H45.1181C45.5008 0 45.8678 0.152015 46.1384 0.422603C46.409 0.693191 46.561 1.06019 46.561 1.44286C46.561 1.82553 46.409 2.19252 46.1384 2.46311C45.8678 2.7337 45.5008 2.88571 45.1181 2.88571Z" fill="black"/>
<path d="M99.5571 57.7143H1.44286C1.06019 57.7143 0.693191 57.5623 0.422603 57.2917C0.152015 57.0211 0 56.6541 0 56.2714C0 55.8888 0.152015 55.5218 0.422603 55.2512C0.693191 54.9806 1.06019 54.8286 1.44286 54.8286H99.5571C99.9398 54.8286 100.307 54.9806 100.577 55.2512C100.848 55.5218 101 55.8888 101 56.2714C101 56.6541 100.848 57.0211 100.577 57.2917C100.307 57.5623 99.9398 57.7143 99.5571 57.7143Z" fill="black"/>
<path d="M50.5 71.332C49.5189 71.332 48.5598 71.041 47.7441 70.496C46.9283 69.9509 46.2925 69.1762 45.9171 68.2697C45.5416 67.3633 45.4434 66.3659 45.6348 65.4037C45.8262 64.4414 46.2986 63.5575 46.9924 62.8638C47.6861 62.17 48.57 61.6976 49.5322 61.5062C50.4945 61.3148 51.4919 61.413 52.3983 61.7885C53.3047 62.1639 54.0795 62.7997 54.6245 63.6155C55.1696 64.4313 55.4605 65.3903 55.4605 66.3714C55.459 67.6866 54.9359 68.9474 54.0059 69.8774C53.076 70.8073 51.8151 71.3304 50.5 71.332ZM50.5 64.2966C50.0896 64.2966 49.6885 64.4183 49.3473 64.6463C49.0061 64.8743 48.7401 65.1983 48.5831 65.5774C48.4261 65.9565 48.385 66.3737 48.465 66.7762C48.5451 67.1787 48.7427 67.5484 49.0329 67.8385C49.323 68.1287 49.6927 68.3263 50.0952 68.4064C50.4977 68.4864 50.9149 68.4454 51.294 68.2883C51.6731 68.1313 51.9972 67.8653 52.2252 67.5241C52.4531 67.1829 52.5748 66.7818 52.5748 66.3714C52.5741 65.8214 52.3552 65.2941 51.9663 64.9051C51.5773 64.5162 51.05 64.2974 50.5 64.2966Z" fill="black"/>
<path d="M71.4532 90.9H29.5468C29.3319 90.9001 29.1197 90.8523 28.9257 90.7599C28.7316 90.6675 28.5607 90.533 28.4253 90.366C28.2899 90.1991 28.1935 90.0041 28.1432 89.7952C28.0928 89.5863 28.0898 89.3687 28.1343 89.1585L30.8757 76.1728C30.9443 75.8487 31.1222 75.5581 31.3797 75.3498C31.6372 75.1414 31.9585 75.028 32.2897 75.0286H68.7103C69.0413 75.0284 69.3622 75.1419 69.6194 75.3502C69.8766 75.5586 70.0543 75.849 70.1229 76.1728L72.8643 89.1585C72.9087 89.3686 72.9057 89.586 72.8555 89.7948C72.8052 90.0036 72.7089 90.1986 72.5737 90.3655C72.4385 90.5324 72.2677 90.667 72.0739 90.7594C71.88 90.8519 71.668 90.8999 71.4532 90.9ZM31.3259 88.0143H69.6741L67.5416 77.9143H33.4584L31.3259 88.0143Z" fill="black"/>
<path d="M77.9143 101H23.0857C22.703 101 22.336 100.848 22.0655 100.577C21.7949 100.307 21.6429 99.9398 21.6429 99.5571V94.1464C21.6448 92.5207 22.2914 90.962 23.441 89.8125C24.5906 88.6629 26.1492 88.0162 27.775 88.0143H73.225C74.8508 88.0162 76.4094 88.6629 77.559 89.8125C78.7086 90.962 79.3552 92.5207 79.3571 94.1464V99.5571C79.3571 99.9398 79.2051 100.307 78.9345 100.577C78.664 100.848 78.297 101 77.9143 101ZM24.5286 98.1143H76.4714V94.1464C76.4703 93.2858 76.1279 92.4607 75.5193 91.8521C74.9107 91.2436 74.0857 90.9011 73.225 90.9H27.775C26.9143 90.9011 26.0893 91.2436 25.4807 91.8521C24.8721 92.4607 24.5297 93.2858 24.5286 94.1464V98.1143Z" fill="black"/>
<path d="M66.9096 57.7143H34.0904C33.7077 57.7143 33.3407 57.5623 33.0701 57.2917C32.7995 57.0211 32.6475 56.6541 32.6475 56.2714V50.4596C32.6494 47.6284 33.775 44.9138 35.7769 42.9118C37.7788 40.9099 40.4935 39.7844 43.3247 39.7825H57.684C60.5152 39.7844 63.2298 40.9099 65.2318 42.9118C67.2337 44.9138 68.3592 47.6284 68.3611 50.4596V56.2714C68.3611 56.4616 68.3235 56.65 68.2505 56.8256C68.1774 57.0012 68.0704 57.1607 67.9355 57.2948C67.8006 57.4288 67.6405 57.535 67.4644 57.6069C67.2884 57.679 67.0998 57.7154 66.9096 57.7143ZM35.5332 54.8286H65.4668V50.4596C65.4668 48.3932 64.6459 46.4114 63.1847 44.9502C61.7235 43.489 59.7417 42.6682 57.6753 42.6682H43.3203C41.2539 42.6682 39.2721 43.489 37.811 44.9502C36.3498 46.4114 35.5289 48.3932 35.5289 50.4596L35.5332 54.8286Z" fill="black"/>
<path d="M50.5 37.2026C44.5035 37.2026 39.8503 30.362 39.8503 24.4781C39.8503 21.6536 40.9723 18.9448 42.9695 16.9476C44.9667 14.9504 47.6755 13.8283 50.5 13.8283C53.3245 13.8283 56.0333 14.9504 58.0305 16.9476C60.0277 18.9448 61.1497 21.6536 61.1497 24.4781C61.1497 30.362 56.4965 37.2026 50.5 37.2026ZM50.5 16.7141C48.4414 16.7167 46.468 17.5358 45.0125 18.9915C43.557 20.4473 42.7383 22.4209 42.736 24.4795C42.736 28.9076 46.32 34.3184 50.5 34.3184C54.68 34.3184 58.264 28.9076 58.264 24.4795C58.2621 22.4207 57.4436 20.4467 55.9881 18.9906C54.5325 17.5345 52.5588 16.7153 50.5 16.7126V16.7141Z" fill="black"/>
<path d="M58.7964 57.7143H42.2036C41.8209 57.7143 41.4539 57.5623 41.1833 57.2917C40.9127 57.0211 40.7607 56.6541 40.7607 56.2714V51.8274C40.7607 51.4448 40.9127 51.0778 41.1833 50.8072C41.4539 50.5366 41.8209 50.3846 42.2036 50.3846C42.5862 50.3846 42.9532 50.5366 43.2238 50.8072C43.4944 51.0778 43.6464 51.4448 43.6464 51.8274V54.8286H57.3536V51.8274C57.3536 51.4448 57.5056 51.0778 57.7762 50.8072C58.0468 50.5366 58.4138 50.3846 58.7964 50.3846C59.1791 50.3846 59.5461 50.5366 59.8167 50.8072C60.0873 51.0778 60.2393 51.4448 60.2393 51.8274V56.2714C60.2393 56.6541 60.0873 57.0211 59.8167 57.2917C59.5461 57.5623 59.1791 57.7143 58.7964 57.7143Z" fill="black"/>
</svg>
