<svg width="423" height="87" viewBox="0 0 423 87" fill="none" xmlns="http://www.w3.org/2000/svg">
<path d="M98.6793 47H93.3628L91.1594 40.4302H80.5466L78.3836 47H74.1385L83.2958 19.4067H89.4209L98.6793 47ZM89.8252 36.4478L85.8025 24.137L81.7797 36.4478H89.8252ZM123.523 47H118.268L113.982 35.6595H106.988V47H102.015V19.4067H113.982C117.311 19.4067 119.757 20.1614 121.32 21.6708C122.883 23.1667 123.665 25.1073 123.665 27.4927C123.665 31.037 122.007 33.4763 118.692 34.8104L123.523 47ZM106.988 31.6771H113.173C114.966 31.6771 116.3 31.2998 117.176 30.5451C118.052 29.7904 118.49 28.7527 118.49 27.432C118.49 26.2191 118.059 25.2421 117.196 24.5009C116.334 23.7462 115.127 23.3688 113.578 23.3688H106.988V31.6771ZM138.26 47H132.923V23.6721H125.585V19.4067H145.598V23.6721H138.26V47ZM167.572 19.4067V37.1352C167.572 39.534 167.302 41.3803 166.763 42.674C166.224 43.9678 165.179 45.0863 163.63 46.0297C162.093 46.9596 160.213 47.4245 157.99 47.4245C155.739 47.4245 153.886 47.0202 152.431 46.2116C150.989 45.403 149.951 44.2979 149.318 42.8964C148.684 41.4813 148.367 39.6822 148.367 37.499V19.4067H153.441V37.1352C153.441 39.5609 153.947 41.1579 154.957 41.9261C155.982 42.6808 157.168 43.0581 158.515 43.0581C160.065 43.0581 161.305 42.6538 162.235 41.8452C163.165 41.0231 163.63 39.4531 163.63 37.1352V19.4067H167.572ZM194.761 47H189.505L185.219 35.6595H178.225V47H173.252V19.4067H185.219C188.548 19.4067 190.994 20.1614 192.557 21.6708C194.12 23.1667 194.902 25.1073 194.902 27.4927C194.902 31.037 193.244 33.4763 189.929 34.8104L194.761 47ZM178.225 31.6771H184.411C186.203 31.6771 187.537 31.2998 188.413 30.5451C189.289 29.7904 189.727 28.7527 189.727 27.432C189.727 26.2191 189.296 25.2421 188.433 24.5009C187.571 23.7462 186.365 23.3688 184.815 23.3688H178.225V31.6771ZM231.713 47H226.457L222.172 35.6595H215.178V47H210.205V19.4067H222.172C225.501 19.4067 227.947 20.1614 229.51 21.6708C231.073 23.1667 231.855 25.1073 231.855 27.4927C231.855 31.037 230.197 33.4763 226.882 34.8104L231.713 47ZM215.178 31.6771H221.363C223.156 31.6771 224.49 31.2998 225.366 30.5451C226.242 29.7904 226.68 28.7527 226.68 27.432C226.68 26.2191 226.249 25.2421 225.386 24.5009C224.524 23.7462 223.317 23.3688 221.768 23.3688H215.178V31.6771ZM246.975 47.4245C243.31 47.4245 240.453 46.0499 238.404 43.3007C236.369 40.5515 235.352 37.1554 235.352 33.1124C235.352 29.0964 236.437 25.7407 238.607 23.0454C240.776 20.3366 243.64 18.9822 247.198 18.9822C250.783 18.9822 253.613 20.3366 255.688 23.0454C257.777 25.7407 258.821 29.1166 258.821 33.173C258.821 37.4316 257.737 40.8749 255.567 43.5028C253.411 46.1173 250.547 47.4245 246.975 47.4245ZM247.016 43.422C248.808 43.422 250.324 42.6808 251.564 41.1983C252.804 39.7159 253.424 37.0273 253.424 33.1326C253.424 29.9656 252.912 27.4859 251.888 25.6935C250.863 23.8877 249.273 22.9848 247.117 22.9848C242.858 22.9848 240.729 26.4145 240.729 33.2741C240.729 36.6028 241.268 39.1297 242.346 40.8547C243.438 42.5662 244.994 43.422 247.016 43.422ZM263.309 47V19.4067H273.477C277.237 19.4067 280.256 20.7409 282.533 23.4093C284.811 26.0642 285.95 29.3457 285.95 33.2539C285.95 37.1621 284.777 40.4302 282.432 43.0581C280.087 45.686 276.732 47 272.365 47H263.309ZM268.423 42.9368H272.567C274.791 42.9368 276.678 42.1013 278.228 40.4302C279.777 38.7591 280.552 36.2727 280.552 32.9709C280.552 30.2756 279.872 27.998 278.511 26.1383C277.163 24.265 275.377 23.3284 273.154 23.3284H268.423V42.9368ZM312.088 47H306.832L302.546 35.6595H295.552V47H290.579V19.4067H302.546C305.875 19.4067 308.321 20.1614 309.884 21.6708C311.447 23.1667 312.229 25.1073 312.229 27.4927C312.229 31.037 310.571 33.4763 307.256 34.8104L312.088 47ZM295.552 31.6771H301.738C303.53 31.6771 304.864 31.2998 305.74 30.5451C306.616 29.7904 307.054 28.7527 307.054 27.432C307.054 26.2191 306.623 25.2421 305.76 24.5009C304.898 23.7462 303.692 23.3688 302.142 23.3688H295.552V31.6771ZM322.155 47H317.182V19.4067H322.155V47ZM349.162 32.89V47H346.958L345.442 43.2805C343.838 46.0432 341.352 47.4245 337.983 47.4245C334.223 47.4245 331.413 45.996 329.553 43.139C327.707 40.2819 326.784 36.9734 326.784 33.2135C326.784 29.2379 327.815 25.8755 329.877 23.1263C331.952 20.3636 334.849 18.9822 338.569 18.9822C341.345 18.9822 343.629 19.7908 345.422 21.408C347.214 23.0117 348.346 25.013 348.818 27.4118L344.492 28.18C343.683 24.8108 341.749 23.1263 338.69 23.1263C336.736 23.1263 335.139 23.9214 333.899 25.5116C332.673 27.1018 332.06 29.5478 332.06 32.8496C332.06 39.817 334.243 43.3007 338.609 43.3007C340.307 43.3007 341.709 42.7145 342.814 41.542C343.933 40.3695 344.492 38.8197 344.492 36.8926H338.791V32.89H349.162ZM373.763 19.4067V37.1352C373.763 39.534 373.494 41.3803 372.954 42.674C372.415 43.9678 371.371 45.0863 369.821 46.0297C368.285 46.9596 366.405 47.4245 364.181 47.4245C361.931 47.4245 360.078 47.0202 358.622 46.2116C357.18 45.403 356.142 44.2979 355.509 42.8964C354.876 41.4813 354.559 39.6822 354.559 37.499V19.4067H359.633V37.1352C359.633 39.5609 360.138 41.1579 361.149 41.9261C362.173 42.6808 363.359 43.0581 364.707 43.0581C366.257 43.0581 367.496 42.6538 368.426 41.8452C369.356 41.0231 369.821 39.4531 369.821 37.1352V19.4067H373.763ZM397.374 47H379.443V19.4067H397.192V23.5103H384.416V30.9898H394.685V34.9924H384.416V42.7145H397.374V47ZM398.789 40.3493L403.62 39.3184C404.2 42.0541 406.423 43.422 410.291 43.422C412.057 43.422 413.411 43.0716 414.354 42.3708C415.311 41.67 415.79 40.8008 415.79 39.7631C415.79 39.0084 415.574 38.3144 415.143 37.681C414.712 37.0341 413.788 36.5287 412.373 36.1648L407.097 34.7902C405.291 34.3186 403.957 33.7862 403.095 33.1933C402.232 32.5868 401.538 31.7378 401.013 30.6462C400.501 29.5546 400.244 28.3889 400.244 27.149C400.244 24.6828 401.161 22.7085 402.994 21.2261C404.826 19.7302 407.171 18.9822 410.028 18.9822C412.4 18.9822 414.516 19.5011 416.376 20.5388C418.249 21.5765 419.442 23.0454 419.954 24.9456L415.224 26.1181C414.496 24.0292 412.798 22.9848 410.13 22.9848C408.58 22.9848 407.394 23.3082 406.572 23.9551C405.763 24.6019 405.359 25.424 405.359 26.4213C405.359 27.998 406.639 29.1031 409.2 29.7365L413.889 30.909C416.733 31.6232 418.64 32.6811 419.61 34.0827C420.581 35.4708 421.066 37.0071 421.066 38.6917C421.066 41.4005 420.042 43.5365 417.993 45.0998C415.958 46.6496 413.317 47.4245 410.069 47.4245C407.333 47.4245 404.934 46.8518 402.872 45.7062C400.824 44.5607 399.463 42.7751 398.789 40.3493Z" fill="white"/>
<path d="M75.6259 69V56.3784H79.0627C80.052 56.3784 80.8138 56.4608 81.3483 56.6257C81.8884 56.7849 82.329 57.0691 82.6701 57.4785C83.1193 58.0186 83.3439 58.7549 83.3439 59.6873C83.3439 61.029 82.889 62.0808 81.9793 62.8427C81.0697 63.6045 79.8075 63.9855 78.1929 63.9855H77.3997V69H75.6259ZM77.3997 62.6295H78.1246C79.1878 62.6295 80.0093 62.385 80.5893 61.8961C81.1692 61.4071 81.4591 60.7135 81.4591 59.8152C81.4591 59.0647 81.2289 58.5274 80.7684 58.2034C80.3135 57.8793 79.5574 57.7173 78.4999 57.7173H77.3997V62.6295ZM85.2797 69V56.3784H92.3325V57.7173H87.0706V61.7681H91.4797V63.09H87.0706V67.6611H92.6992V69H85.2797ZM94.746 69V56.3784H98.5666C99.7776 56.3784 100.704 56.6456 101.347 57.18C101.995 57.7144 102.319 58.4905 102.319 59.5082C102.319 60.3098 102.094 61.0233 101.645 61.6487C101.202 62.2741 100.576 62.7546 99.769 63.09L103.982 69H101.782L98.1913 63.6614H96.5198V69H94.746ZM96.5198 62.3225H97.0997C98.2027 62.3225 99.0413 62.0979 99.6155 61.6487C100.19 61.1996 100.477 60.5429 100.477 59.6787C100.477 58.3711 99.5331 57.7173 97.6455 57.7173H96.5198V62.3225ZM105.022 68.7612V66.9874C106.444 67.6469 107.615 67.9766 108.536 67.9766C109.235 67.9766 109.798 67.7918 110.225 67.4223C110.657 67.0471 110.873 66.561 110.873 65.964C110.873 65.4693 110.731 65.0486 110.446 64.7018C110.168 64.355 109.65 63.9684 108.894 63.542L108.024 63.0388C106.95 62.4248 106.191 61.8477 105.747 61.3076C105.309 60.7618 105.091 60.1307 105.091 59.4144C105.091 58.4365 105.443 57.6348 106.148 57.0094C106.853 56.3784 107.751 56.0628 108.843 56.0628C109.815 56.0628 110.841 56.2248 111.922 56.5489V58.1863C110.591 57.6633 109.599 57.4017 108.945 57.4017C108.326 57.4017 107.814 57.5666 107.41 57.8964C107.007 58.2261 106.805 58.6412 106.805 59.1415C106.805 59.5622 106.953 59.9346 107.248 60.2587C107.544 60.5827 108.084 60.9693 108.869 61.4185L109.773 61.9302C110.864 62.5499 111.626 63.1355 112.058 63.687C112.49 64.2385 112.706 64.9008 112.706 65.674C112.706 66.7713 112.303 67.6526 111.495 68.3177C110.688 68.9829 109.616 69.3155 108.28 69.3155C107.427 69.3155 106.341 69.1308 105.022 68.7612ZM120.373 69.3155C118.582 69.3155 117.149 68.7157 116.075 67.5161C115.006 66.3108 114.472 64.7018 114.472 62.6892C114.472 60.6765 115.006 59.0704 116.075 57.8708C117.149 56.6655 118.582 56.0628 120.373 56.0628C122.164 56.0628 123.594 56.6655 124.663 57.8708C125.737 59.0704 126.275 60.6765 126.275 62.6892C126.275 64.7018 125.737 66.3108 124.663 67.5161C123.594 68.7157 122.164 69.3155 120.373 69.3155ZM120.373 67.9766C121.63 67.9766 122.61 67.5104 123.315 66.578C124.02 65.6399 124.373 64.3379 124.373 62.6721C124.373 61.0177 124.02 59.7271 123.315 58.8003C122.61 57.8679 121.63 57.4017 120.373 57.4017C119.117 57.4017 118.136 57.8679 117.431 58.8003C116.726 59.7271 116.373 61.0177 116.373 62.6721C116.373 64.3379 116.726 65.6399 117.431 66.578C118.136 67.5104 119.117 67.9766 120.373 67.9766ZM128.79 69V56.3784H130.547L136.901 66.126V56.3784H138.436V69H136.687L130.325 59.2523V69H128.79ZM140.218 69L145.224 56.3784H146.998L151.927 69H149.991L148.618 65.5035H143.271L141.881 69H140.218ZM143.791 64.1731H148.098L145.949 58.7321L143.791 64.1731ZM153.761 69V56.3784H155.552V67.6611H161.231V69H153.761ZM171.602 69V57.7173H167.124V56.3784H177.87V57.7173H173.392V69H171.602ZM179.652 69V56.3784H183.473C184.684 56.3784 185.61 56.6456 186.253 57.18C186.901 57.7144 187.225 58.4905 187.225 59.5082C187.225 60.3098 187.001 61.0233 186.551 61.6487C186.108 62.2741 185.483 62.7546 184.675 63.09L188.888 69H186.688L183.098 63.6614H181.426V69H179.652ZM181.426 62.3225H182.006C183.109 62.3225 183.947 62.0979 184.522 61.6487C185.096 61.1996 185.383 60.5429 185.383 59.6787C185.383 58.3711 184.439 57.7173 182.552 57.7173H181.426V62.3225ZM189.221 69L194.227 56.3784H196.001L200.93 69H198.994L197.621 65.5035H192.274L190.884 69H189.221ZM192.794 64.1731H197.101L194.952 58.7321L192.794 64.1731ZM202.755 69V56.3784H204.546V69H202.755ZM207.795 69V56.3784H209.552L215.905 66.126V56.3784H217.44V69H215.692L209.33 59.2523V69H207.795ZM220.707 69V56.3784H227.759V57.7173H222.498V61.7681H226.907V63.09H222.498V67.6611H228.126V69H220.707ZM230.173 69V56.3784H233.993C235.204 56.3784 236.131 56.6456 236.774 57.18C237.422 57.7144 237.746 58.4905 237.746 59.5082C237.746 60.3098 237.521 61.0233 237.072 61.6487C236.629 62.2741 236.003 62.7546 235.196 63.09L239.409 69H237.209L233.618 63.6614H231.947V69H230.173ZM231.947 62.3225H232.527C233.63 62.3225 234.468 62.0979 235.042 61.6487C235.617 61.1996 235.904 60.5429 235.904 59.6787C235.904 58.3711 234.96 57.7173 233.072 57.7173H231.947V62.3225Z" fill="white"/>
<path fill-rule="evenodd" clip-rule="evenodd" d="M36.2992 10.6455C33.3402 10.8246 18.3075 13.9246 18.3075 13.9246C18.3075 13.9246 5.62674 28.8876 6.12244 28.6574C8.53011 27.5524 20.3813 18.5542 21.6711 18.0017C22.8345 17.5055 31.1551 18.6002 33.6184 18.6053C36.0716 18.6104 38.6665 10.7734 36.2992 10.6455Z" fill="white"/>
<path fill-rule="evenodd" clip-rule="evenodd" d="M36.2992 10.6455C33.3402 10.8246 18.3075 13.9246 18.3075 13.9246C18.3075 13.9246 5.62674 28.8876 6.12244 28.6574C8.53011 27.5524 20.3813 18.5542 21.6711 18.0017C22.8345 17.5055 31.1551 18.6002 33.6184 18.6053C36.0716 18.6104 38.6665 10.7734 36.2992 10.6455Z" fill="white"/>
<path fill-rule="evenodd" clip-rule="evenodd" d="M33.6184 18.6051C34.7919 18.6051 35.9907 16.8249 36.6735 14.9475C36.6432 14.9168 36.623 14.8964 36.623 14.8964L21.0237 14.7275L6.3551 28.5395V28.5446C9.20789 27.0407 20.4218 18.5386 21.6711 18.0066C22.8345 17.5053 31.1551 18.6 33.6184 18.6051Z" fill="white"/>
<path fill-rule="evenodd" clip-rule="evenodd" d="M30.3104 36.6732C28.4186 39.1952 30.3256 42.3566 32.5157 43.7992C37.2906 46.9453 47.6193 47.2522 51.2814 47.1396C41.1146 54.8079 39.2076 77.1935 39.2228 77.1628C47.8166 56.3016 57.9834 48.4032 58.5145 47.4261C61.7517 41.4256 42.6219 35.0209 40.9426 37.4099C40.9426 37.4099 44.6047 32.7956 45.7124 26.0636C45.8894 25.0712 45.9704 24.0941 45.9147 23.1784C45.5606 17.2751 37.6295 10.6606 37.6295 10.6606C39.7387 13.597 37.1439 18.7637 33.9522 19.5003C35.7226 22.8408 35.2977 26.4728 34.2203 29.5473C33.7651 31.0666 30.3104 36.6732 30.3104 36.6732Z" fill="white"/>
<path fill-rule="evenodd" clip-rule="evenodd" d="M30.2649 43.3647C32.0352 45.4621 38.5956 47.4623 38.7828 46.9917C38.9699 46.521 26.4763 63.3921 23.2745 66.528C20.093 69.6433 2.74865 82.8926 0.0121978 86.8367C-0.45315 87.5069 12.5007 65.3258 20.9883 61.4482C24.6149 55.4988 26.6331 49.3192 30.2649 43.3647Z" fill="white"/>
<path fill-rule="evenodd" clip-rule="evenodd" d="M40.7706 12.4256C42.9203 13.3311 54.2607 17.6383 54.2607 17.6383C54.2607 17.6383 67.2601 6.80361 66.992 7.43794C66.7239 8.07227 57.0831 21.6899 55.5555 22.2372C54.033 22.7795 46.37 21.5824 46.4155 20.856C46.0159 16.871 40.7706 12.4256 40.7706 12.4256Z" fill="white"/>
<path d="M40.973 10.7017C43.8196 10.7017 46.1272 8.30607 46.1272 5.35087C46.1272 2.39567 43.8196 0 40.973 0C38.1264 0 35.8187 2.39567 35.8187 5.35087C35.8187 8.30607 38.1264 10.7017 40.973 10.7017Z" fill="white"/>
<path d="M40.973 10.7017C43.8196 10.7017 46.1272 8.30607 46.1272 5.35087C46.1272 2.39567 43.8196 0 40.973 0C38.1264 0 35.8187 2.39567 35.8187 5.35087C35.8187 8.30607 38.1264 10.7017 40.973 10.7017Z" fill="white"/>
<path fill-rule="evenodd" clip-rule="evenodd" d="M40.9729 0C39.5313 0 38.2314 0.618982 37.2956 1.6114C37.0022 2.28665 36.8303 3.02841 36.8303 3.81109C36.8303 6.75765 39.1469 9.16195 41.9845 9.16195C43.4261 9.16195 44.726 8.54297 45.6618 7.55056C45.9551 6.8753 46.1271 6.13355 46.1271 5.35087C46.1271 2.40431 43.8105 0 40.9729 0Z" fill="white"/>
<path d="M30.2649 43.3647C26.6331 49.3193 24.615 55.4988 20.9883 61.4533C14.7162 64.3181 6.00609 77.1734 2.07593 83.4195C5.48511 79.1378 11.8735 71.3417 15.4648 68.4361C20.5229 64.3436 23.052 62.809 23.052 62.809L33.9219 45.6616C32.4095 45.0068 30.9629 44.1935 30.2649 43.3647Z" fill="white"/>
<path d="M36.1728 39.0216L35.4596 38.9551L36.0564 38.551C36.0817 38.5305 38.9648 36.3615 38.4742 24.964C38.2972 20.8563 37.8116 18.3496 37.2805 16.8252C36.456 18.1501 35.2572 19.1937 33.9522 19.4955C35.7226 22.836 35.2977 26.468 34.2203 29.5425C33.76 31.0669 30.3104 36.6684 30.3104 36.6684C28.4186 39.1904 30.3256 42.3518 32.5157 43.7944C37.2906 46.9405 47.6193 47.2474 51.2814 47.1348C41.1146 54.8031 39.2076 77.1887 39.2228 77.158C39.5111 76.4623 39.7994 75.7871 40.0878 75.122C43.3047 59.2996 52.6825 47.0632 53.6284 45.8611C52.4599 40.5818 36.3397 39.0369 36.1728 39.0216Z" fill="white"/>
</svg>
