<svg width="415" height="96" viewBox="0 0 415 96" fill="none" xmlns="http://www.w3.org/2000/svg">
<g clip-path="url(#clip0)">
<path d="M98.0631 44.1324H88.2734L86.4131 49.6798H80.4729L90.5665 22.739H95.7423L105.891 49.6798H99.9511L98.0631 44.1324ZM89.7745 39.6377H96.5527L93.1452 29.5497L89.7745 39.6377ZM118.444 39.8207H113.996V49.6798H108.415V22.739H118.49C121.695 22.739 124.163 23.4439 125.904 24.8628C127.644 26.2817 128.51 28.2865 128.51 30.8771C128.51 32.7171 128.105 34.255 127.303 35.4817C126.511 36.6992 125.296 37.6787 123.675 38.4018L129.541 49.4143V49.6707H123.546L118.444 39.8207ZM113.996 35.326H118.499C119.899 35.326 120.986 34.9782 121.759 34.2733C122.533 33.5593 122.91 32.5798 122.91 31.3348C122.91 30.0624 122.542 29.0646 121.815 28.3414C121.096 27.6091 119.982 27.252 118.481 27.252H113.996V35.326ZM152.234 27.2337H143.927V49.6798H138.336V27.2337H130.149V22.739H152.234V27.2337ZM175.957 22.739V40.489C175.957 43.4367 175.027 45.771 173.167 47.4828C171.316 49.1946 168.783 50.0551 165.569 50.0551C162.401 50.0551 159.887 49.2221 158.026 47.556C156.166 45.89 155.217 43.6014 155.181 40.6904V22.739H160.762V40.5256C160.762 42.2924 161.185 43.5831 162.033 44.3978C162.889 45.2034 164.068 45.597 165.569 45.597C168.709 45.597 170.303 43.9584 170.349 40.6721V22.739H175.957ZM190.573 39.8207H186.125V49.6798H180.544V22.739H190.619C193.824 22.739 196.292 23.4439 198.023 24.8628C199.764 26.2817 200.63 28.2865 200.63 30.8771C200.63 32.7171 200.224 34.255 199.423 35.4817C198.631 36.6992 197.416 37.6787 195.795 38.4018L201.661 49.4143V49.6707H195.666L190.573 39.8207ZM186.125 35.326H190.628C192.028 35.326 193.115 34.9782 193.888 34.2733C194.662 33.5593 195.04 32.5798 195.04 31.3348C195.04 30.0624 194.671 29.0646 193.944 28.3414C193.225 27.6091 192.111 27.252 190.61 27.252H186.125V35.326ZM225.293 38.4659H217.419V49.6798H215.107V22.739H223.911C226.803 22.739 229.06 23.4347 230.69 24.8262C232.32 26.2176 233.13 28.1675 233.13 30.6757C233.13 32.4059 232.624 33.9255 231.601 35.2437C230.588 36.5619 229.216 37.4773 227.503 37.9808L234.281 49.4326V49.6707H231.841L225.293 38.4659ZM217.419 36.5252H224.436C226.361 36.5252 227.908 35.9851 229.069 34.8958C230.238 33.8064 230.819 32.4059 230.819 30.6757C230.819 28.7716 230.211 27.2978 228.995 26.2542C227.779 25.2015 226.076 24.6797 223.875 24.6797H217.419V36.5252ZM259.396 37.6695C259.396 40.1503 258.963 42.329 258.088 44.2056C257.231 46.0822 256.007 47.5286 254.404 48.5355C252.802 49.5517 250.951 50.0551 248.86 50.0551C245.692 50.0551 243.141 48.9292 241.188 46.6864C239.236 44.4253 238.269 41.3861 238.269 37.5597V34.7859C238.269 32.3326 238.702 30.1631 239.577 28.2682C240.461 26.3641 241.695 24.9086 243.297 23.9016C244.9 22.8763 246.742 22.3637 248.823 22.3637C250.905 22.3637 252.746 22.8672 254.33 23.865C255.933 24.8628 257.167 26.2725 258.033 28.1034C258.898 29.9251 259.35 32.0488 259.396 34.4472V37.6695ZM257.103 34.7493C257.103 31.5087 256.366 28.9639 254.883 27.1239C253.41 25.2839 251.383 24.3685 248.814 24.3685C246.3 24.3685 244.283 25.293 242.782 27.1422C241.29 28.9822 240.544 31.5545 240.544 34.8592V37.6695C240.544 40.8643 241.29 43.4 242.782 45.2766C244.274 47.1349 246.291 48.0687 248.851 48.0687C251.448 48.0687 253.465 47.1533 254.92 45.3133C256.375 43.4641 257.093 40.8918 257.093 37.5963V34.7493H257.103ZM265.17 49.6798V22.739H272.75C274.969 22.739 276.967 23.2425 278.727 24.2586C280.486 25.2564 281.858 26.6936 282.843 28.5702C283.838 30.4469 284.335 32.5798 284.335 34.969V37.4498C284.335 39.8574 283.847 41.9903 282.862 43.8486C281.876 45.7069 280.495 47.1441 278.708 48.1602C276.931 49.1763 274.895 49.6798 272.584 49.6798H265.17ZM267.454 24.6797V47.7574H272.593C275.448 47.7574 277.741 46.8237 279.463 44.9471C281.185 43.0613 282.051 40.5165 282.051 37.3033V34.9324C282.051 31.8383 281.204 29.3575 279.5 27.4901C277.796 25.6318 275.558 24.6889 272.777 24.6797H267.454ZM300.277 38.4659H292.403V49.6798H290.1V22.739H298.905C301.796 22.739 304.053 23.4347 305.683 24.8262C307.313 26.2176 308.123 28.1675 308.123 30.6757C308.123 32.4059 307.617 33.9255 306.595 35.2437C305.582 36.5619 304.209 37.4773 302.496 37.9808L309.275 49.4326V49.6707H306.834L300.277 38.4659ZM292.403 36.5252H299.42C301.345 36.5252 302.892 35.9851 304.053 34.8958C305.222 33.8064 305.803 32.4059 305.803 30.6757C305.803 28.7716 305.195 27.2978 303.979 26.2542C302.763 25.2015 301.06 24.6797 298.859 24.6797H292.393V36.5252H292.403ZM317.149 49.6798H314.856V22.739H317.149V49.6798ZM344.087 46.485C343.295 47.611 342.042 48.4806 340.348 49.1123C338.662 49.7439 336.765 50.0551 334.665 50.0551C332.547 50.0551 330.659 49.5517 329.011 48.5355C327.362 47.5194 326.082 46.0914 325.17 44.2422C324.268 42.3931 323.807 40.2693 323.798 37.8801V34.4747C323.798 30.7398 324.747 27.7921 326.644 25.6318C328.541 23.4622 331.092 22.3729 334.297 22.3729C337.087 22.3729 339.334 23.0777 341.038 24.4966C342.742 25.9064 343.746 27.8471 344.077 30.3279H341.784C341.453 28.3505 340.633 26.8584 339.344 25.8515C338.064 24.8262 336.387 24.3136 334.315 24.3136C331.783 24.3136 329.775 25.2107 328.301 26.9957C326.828 28.7808 326.082 31.3074 326.082 34.5662V37.7519C326.082 39.8024 326.432 41.615 327.123 43.1895C327.832 44.7549 328.836 45.9724 330.143 46.8329C331.46 47.6934 332.971 48.1328 334.665 48.1328C336.636 48.1328 338.331 47.8215 339.749 47.2082C340.67 46.8054 341.351 46.3294 341.793 45.7801V38.8229H334.518V36.9006H344.087V46.485ZM369.256 22.739V41.1298C369.247 42.9423 368.842 44.526 368.05 45.8625C367.258 47.2082 366.134 48.2426 364.679 48.9749C363.242 49.689 361.585 50.046 359.706 50.046C356.851 50.046 354.558 49.277 352.836 47.73C351.123 46.1738 350.239 44.0317 350.174 41.2946V22.739H352.449V40.965C352.449 43.2353 353.103 45.002 354.401 46.2561C355.7 47.5011 357.468 48.1236 359.706 48.1236C361.944 48.1236 363.703 47.492 364.992 46.2378C366.3 44.9837 366.945 43.2261 366.945 40.9833V22.739H369.256ZM390.613 36.7632H377.932V47.7574H392.51V49.6798H375.638V22.739H392.409V24.6797H377.922V34.8409H390.604V36.7632H390.613ZM412.688 43.0613C412.688 41.5692 412.163 40.3883 411.104 39.5278C410.045 38.649 408.12 37.8251 405.312 37.047C402.512 36.2598 400.458 35.3993 399.169 34.4747C397.327 33.1657 396.415 31.4538 396.415 29.33C396.415 27.2704 397.262 25.5951 398.966 24.3136C400.679 23.0137 402.862 22.3729 405.523 22.3729C407.319 22.3729 408.931 22.7207 410.349 23.4073C411.777 24.0938 412.882 25.0642 413.665 26.2909C414.447 27.5267 414.834 28.8998 414.834 30.4194H412.523C412.523 28.5794 411.887 27.1056 410.625 25.9979C409.355 24.872 407.66 24.3136 405.523 24.3136C403.451 24.3136 401.803 24.7804 400.569 25.705C399.344 26.6204 398.727 27.8105 398.727 29.2934C398.727 30.6666 399.279 31.7834 400.384 32.6439C401.49 33.5044 403.258 34.2733 405.689 34.9416C408.12 35.5915 409.962 36.2781 411.215 36.9921C412.467 37.697 413.416 38.5392 414.042 39.5278C414.678 40.5165 414.991 41.6791 414.991 43.0247C414.991 45.1485 414.134 46.8512 412.421 48.1328C410.718 49.4143 408.47 50.0551 405.68 50.0551C403.764 50.0551 402.015 49.7164 400.412 49.039C398.828 48.3616 397.612 47.4096 396.784 46.1921C395.964 44.9746 395.559 43.574 395.559 41.9903H397.852C397.852 43.8944 398.561 45.3865 399.988 46.485C401.416 47.5835 403.313 48.1328 405.689 48.1328C407.798 48.1328 409.493 47.6659 410.773 46.7413C412.053 45.8167 412.688 44.5901 412.688 43.0613Z" fill="#020203"/>
<path d="M84.2949 71.3478V79.1197H81.6609V59.2734H89.0194C91.202 59.2734 92.915 59.8318 94.1491 60.9395C95.3924 62.0471 96.0094 63.5118 96.0094 65.3426C96.0094 67.265 95.4016 68.7572 94.1859 69.8007C92.9795 70.8352 91.2481 71.3569 88.9917 71.3569H84.2949V71.3478ZM84.2949 69.2057H89.0286C90.4376 69.2057 91.5152 68.8762 92.2611 68.2262C93.0071 67.5671 93.3847 66.6059 93.3847 65.3609C93.3847 64.1801 93.0071 63.2372 92.2611 62.5231C91.5152 61.8183 90.4837 61.4429 89.1759 61.4155H84.2949V69.2057ZM115.709 69.9472H107.061V76.9776H117.108V79.1197H104.427V59.2734H116.97V61.4246H107.061V67.8051H115.709V69.9472ZM132.765 71.0915H128.077V79.1197H125.434V59.2734H132.037C134.284 59.2734 136.016 59.786 137.222 60.8022C138.438 61.8183 139.046 63.3013 139.046 65.2419C139.046 66.4778 138.705 67.558 138.033 68.4734C137.369 69.3888 136.43 70.0754 135.233 70.5331L139.92 78.9549V79.1197H137.093L132.765 71.0915ZM128.077 68.9494H132.12C133.428 68.9494 134.468 68.6107 135.233 67.9424C136.006 67.2742 136.402 66.3679 136.402 65.2419C136.402 64.0153 136.034 63.0724 135.297 62.4225C134.57 61.7725 133.501 61.4338 132.12 61.4246H128.086V68.9494H128.077ZM153.68 70.2676C151.423 69.6268 149.775 68.8304 148.743 67.8967C147.721 66.9538 147.205 65.7912 147.205 64.4089C147.205 62.8435 147.831 61.5528 149.084 60.5367C150.346 59.5114 151.985 58.9988 153.993 58.9988C155.365 58.9988 156.581 59.2643 157.649 59.786C158.726 60.317 159.564 61.0402 160.145 61.9647C160.734 62.8893 161.038 63.9054 161.038 65.0039H158.395C158.395 63.8047 158.008 62.8619 157.244 62.1844C156.479 61.4979 155.392 61.15 153.993 61.15C152.694 61.15 151.681 61.4338 150.953 62.0105C150.235 62.5781 149.867 63.3562 149.867 64.3723C149.867 65.1779 150.208 65.8644 150.898 66.432C151.589 66.9904 152.768 67.4939 154.425 67.9607C156.092 68.4276 157.391 68.9402 158.321 69.4986C159.26 70.057 159.96 70.707 160.402 71.4485C160.863 72.19 161.084 73.0688 161.084 74.0757C161.084 75.6869 160.458 76.9776 159.196 77.948C157.934 78.9092 156.249 79.3943 154.14 79.3943C152.768 79.3943 151.488 79.138 150.3 78.6162C149.112 78.0853 148.191 77.3712 147.546 76.465C146.911 75.5587 146.588 74.5243 146.588 73.3709H149.231C149.231 74.5701 149.673 75.5221 150.557 76.2178C151.451 76.9044 152.648 77.2522 154.14 77.2522C155.531 77.2522 156.59 76.9685 157.336 76.4101C158.072 75.8425 158.45 75.0827 158.45 74.1032C158.45 73.1329 158.109 72.3822 157.419 71.8513C156.728 71.3112 155.475 70.7894 153.68 70.2676ZM184.881 69.8373C184.881 71.778 184.55 73.4807 183.896 74.9362C183.242 76.3826 182.303 77.4811 181.096 78.2501C179.89 79.0099 178.481 79.3943 176.869 79.3943C175.294 79.3943 173.904 79.0099 172.688 78.2501C171.472 77.4811 170.524 76.3826 169.851 74.9637C169.188 73.5356 168.838 71.8879 168.82 70.0204V68.5924C168.82 66.6883 169.152 65.0039 169.824 63.5393C170.487 62.0746 171.435 60.9578 172.651 60.1888C173.876 59.4107 175.276 59.0171 176.851 59.0171C178.453 59.0171 179.853 59.4016 181.069 60.1797C182.294 60.9395 183.233 62.0563 183.896 63.521C184.559 64.9765 184.881 66.67 184.881 68.6015V69.8373ZM182.257 68.5558C182.257 66.2031 181.787 64.3998 180.829 63.1456C179.881 61.8824 178.545 61.2507 176.841 61.2507C175.175 61.2507 173.867 61.8824 172.909 63.1456C171.96 64.3998 171.472 66.1482 171.445 68.3818V69.8373C171.445 72.1167 171.924 73.911 172.881 75.22C173.848 76.5199 175.184 77.1699 176.869 77.1699C178.573 77.1699 179.881 76.5565 180.82 75.3299C181.75 74.094 182.229 72.3273 182.257 70.0296V68.5558ZM209.222 79.1105H206.579L196.531 63.823V79.1105H193.888V59.2734H196.531L206.607 74.6341V59.2734H209.222V79.1105ZM230.22 73.9384H221.858L219.979 79.1197H217.262L224.888 59.2826H227.19L234.825 79.1197H232.126L230.22 73.9384ZM222.65 71.7872H229.437L226.039 62.5048L222.65 71.7872ZM245.213 76.9776H254.671V79.1197H242.57V59.2734H245.213V76.9776ZM287.991 61.4246H281.572V79.1105H278.957V61.4246H272.556V59.2734H287.991V61.4246ZM303.325 71.0915H298.638V79.1197H295.994V59.2734H302.607C304.854 59.2734 306.585 59.786 307.792 60.8022C309.008 61.8183 309.615 63.3013 309.615 65.2419C309.615 66.4778 309.275 67.558 308.602 68.4734C307.939 69.3888 307 70.0754 305.803 70.5331L310.49 78.9549V79.1197H307.663L303.325 71.0915ZM298.638 68.9494H302.681C303.988 68.9494 305.029 68.6107 305.793 67.9424C306.567 67.2742 306.963 66.3679 306.963 65.2419C306.963 64.0153 306.595 63.0724 305.849 62.4225C305.121 61.7725 304.062 61.4338 302.671 61.4246H298.638V68.9494ZM329.388 73.9384H321.026L319.147 79.1197H316.43L324.056 59.2826H326.358L333.993 79.1197H331.295L329.388 73.9384ZM321.818 71.7872H328.605L325.207 62.5048L321.818 71.7872ZM344.556 79.1105H341.922V59.2734H344.556V79.1105ZM369.781 79.1105H367.138L357.091 63.823V79.1105H354.447V59.2734H357.091L367.166 74.6341V59.2734H369.781V79.1105ZM390.788 69.9472H382.14V76.9776H392.188V79.1197H379.506V59.2734H392.05V61.4246H382.14V67.8051H390.788V69.9472ZM407.844 71.0915H403.157V79.1197H400.513V59.2734H407.126C409.373 59.2734 411.104 59.786 412.311 60.8022C413.527 61.8183 414.134 63.3013 414.134 65.2419C414.134 66.4778 413.794 67.558 413.121 68.4734C412.458 69.3888 411.519 70.0754 410.322 70.5331L415.009 78.9549V79.1197H412.182L407.844 71.0915ZM403.147 68.9494H407.19C408.498 68.9494 409.539 68.6107 410.303 67.9424C411.077 67.2742 411.473 66.3679 411.473 65.2419C411.473 64.0153 411.104 63.0724 410.358 62.4225C409.631 61.7725 408.572 61.4338 407.181 61.4246H403.147V68.9494Z" fill="#828383"/>
<path d="M40.7798 74.8722C59.3651 74.8722 74.4314 59.8963 74.4314 41.4227C74.4314 22.9491 59.3651 7.97333 40.7798 7.97333C22.1945 7.97333 7.12817 22.9491 7.12817 41.4227C7.12817 59.8963 22.1945 74.8722 40.7798 74.8722Z" fill="#EDEDED"/>
<path fill-rule="evenodd" clip-rule="evenodd" d="M41.4337 14.601C38.1367 14.8023 21.403 18.226 21.403 18.226C21.403 18.226 7.28477 34.7859 7.83734 34.5296C10.5173 33.303 23.7146 23.3524 25.1513 22.739C26.4498 22.1898 35.7146 23.3981 38.4498 23.4073C41.1851 23.4164 44.0769 14.7383 41.4337 14.601Z" fill="url(#paint0_linear)"/>
<path fill-rule="evenodd" clip-rule="evenodd" d="M41.4337 14.601C38.1367 14.8023 21.403 18.226 21.403 18.226C21.403 18.226 7.28477 34.7859 7.83734 34.5296C10.5173 33.303 23.7146 23.3524 25.1513 22.739C26.4498 22.1898 35.7146 23.3981 38.4498 23.4073C41.1851 23.4164 44.0769 14.7383 41.4337 14.601Z" fill="#4577BB"/>
<path fill-rule="evenodd" clip-rule="evenodd" d="M38.4498 23.4073C39.7575 23.4073 41.0929 21.4391 41.8481 19.3611C41.8113 19.3245 41.7928 19.3062 41.7928 19.3062L24.4237 19.1231L8.09515 34.4015V34.4106C11.2724 32.7445 23.7606 23.334 25.1512 22.7482C26.4498 22.1898 35.7145 23.4073 38.4498 23.4073Z" fill="#265EA9"/>
<path fill-rule="evenodd" clip-rule="evenodd" d="M34.4989 43.6014C32.3899 46.3934 34.5173 49.8903 36.9578 51.4923C42.2717 54.9709 53.7744 55.3096 57.8543 55.1906C46.5357 63.6765 44.4083 88.4478 44.4268 88.4203C53.9955 65.3334 65.314 56.5912 65.9034 55.511C69.5043 48.8742 48.2119 41.7797 46.3423 44.4253C46.3423 44.4253 50.4222 39.3172 51.6563 31.8657C51.8497 30.7672 51.9417 29.687 51.8773 28.6709C52.3654 21.6313 41.977 14.8023 41.977 14.8023C40.9916 17.9971 42.106 23.7826 38.5603 24.6064C40.5311 28.3047 40.0614 32.3234 38.855 35.7288C38.3393 37.3948 34.4989 43.6014 34.4989 43.6014Z" fill="#4577BB"/>
<path d="M45.8358 13.8228C49.5381 13.8228 52.5312 10.7287 52.5312 6.91141C52.5312 3.09412 49.5289 0 45.8358 0C42.1336 0 39.1405 3.09412 39.1405 6.91141C39.1405 10.7287 42.1336 13.8228 45.8358 13.8228Z" fill="url(#paint1_linear)"/>
<path d="M45.8358 13.8228C49.5381 13.8228 52.5312 10.7287 52.5312 6.91141C52.5312 3.09412 49.5289 0 45.8358 0C42.1336 0 39.1405 3.09412 39.1405 6.91141C39.1405 10.7287 42.1336 13.8228 45.8358 13.8228Z" fill="#265EA9"/>
<path fill-rule="evenodd" clip-rule="evenodd" d="M45.8358 0C43.9663 0 42.2717 0.796415 41.0561 2.078C40.6785 2.94765 40.4482 3.90884 40.4482 4.9158C40.4482 8.72394 43.4598 11.8272 47.1436 11.8272C49.0131 11.8272 50.7077 11.0308 51.9233 9.74921C52.3009 8.87956 52.5312 7.91838 52.5312 6.91141C52.5312 3.10327 49.5196 0 45.8358 0Z" fill="#4577BB"/>
<path fill-rule="evenodd" clip-rule="evenodd" d="M33.6977 47.8672C35.6685 50.1924 42.9717 52.3986 43.1835 51.8768C43.3953 51.355 29.4797 70.0295 25.9156 73.499C22.3699 76.9501 3.06676 91.606 0.0184025 95.9725C-0.497331 96.714 13.9248 72.1625 23.3738 67.8783C27.4076 61.2964 29.6547 54.4583 33.6977 47.8672Z" fill="#4577BB"/>
<path d="M33.6977 47.8672C29.6547 54.4583 27.4076 61.2964 23.3646 67.8875C16.3838 71.0548 6.68611 85.2804 2.31158 92.201C6.10591 87.4591 13.2157 78.8359 17.2218 75.6228C22.8488 71.0914 25.667 69.3979 25.667 69.3979L37.7683 50.4213C36.0829 49.6889 34.4713 48.7827 33.6977 47.8672Z" fill="#265EA9"/>
<path d="M40.4943 45.9998L39.7023 45.9266L40.3654 45.478C40.393 45.4597 44.9149 40.6538 44.3623 28.0393C44.1689 23.4897 42.5388 20.2216 41.2587 19.2971C40.3378 20.7617 38.6893 23.0228 37.2342 23.3615C39.205 27.0598 39.5181 32.1129 38.3209 35.5091C37.8051 37.1935 33.9648 43.3909 33.9648 43.3909C31.8558 46.1829 33.9832 49.6798 36.4237 51.2818C41.7376 54.7604 53.2403 55.0991 57.3201 54.9801C46.0016 63.466 43.8742 88.2373 43.8926 88.2098C44.215 87.4409 44.5373 86.6902 44.8596 85.9579C48.4422 68.4459 58.8858 54.9069 59.9356 53.5704C58.6279 47.73 40.6785 46.0181 40.4943 45.9998Z" fill="#265EA9"/>
<path fill-rule="evenodd" clip-rule="evenodd" d="M45.8358 17.7957C48.2303 18.7935 60.8566 23.5629 60.8566 23.5629C60.8566 23.5629 75.334 11.5709 75.03 12.2757C74.7353 12.9806 63.997 28.0484 62.2933 28.6526C60.5987 29.2568 51.822 28.5153 51.8681 27.7189C51.426 23.3065 45.8358 17.7957 45.8358 17.7957Z" fill="#265EA9"/>
</g>
<defs>
<linearGradient id="paint0_linear" x1="13.9031" y1="-5.19334" x2="50.1897" y2="93.8135" gradientUnits="userSpaceOnUse">
<stop offset="0.0112" stop-color="#3EB1CB"/>
<stop offset="0.5" stop-color="#0699B9"/>
<stop offset="0.9944" stop-color="#017D85"/>
</linearGradient>
<linearGradient id="paint1_linear" x1="35.9531" y1="-19.7282" x2="78.2938" y2="95.7973" gradientUnits="userSpaceOnUse">
<stop offset="0.0112" stop-color="#3EB1CB"/>
<stop offset="0.5" stop-color="#0699B9"/>
<stop offset="0.9944" stop-color="#017D85"/>
</linearGradient>
<clipPath id="clip0">
<rect width="415" height="96" fill="white"/>
</clipPath>
</defs>
</svg>
