<svg width="35" height="35" viewBox="0 0 35 35" fill="none" xmlns="http://www.w3.org/2000/svg">
<path d="M17.5044 0H17.4956C7.84656 0 0 7.84875 0 17.5C0 21.3281 1.23375 24.8762 3.33156 27.7572L1.15062 34.2584L7.87719 32.1081C10.6444 33.9412 13.9453 35 17.5044 35C27.1534 35 35 27.1491 35 17.5C35 7.85094 27.1534 0 17.5044 0ZM27.6872 24.7122C27.265 25.9044 25.5894 26.8931 24.2528 27.1819C23.3384 27.3766 22.1441 27.5319 18.1234 25.865C12.9806 23.7344 9.66875 18.5084 9.41063 18.1694C9.16344 17.8303 7.3325 15.4022 7.3325 12.8909C7.3325 10.3797 8.60781 9.15688 9.12187 8.63188C9.54406 8.20094 10.2419 8.00406 10.9113 8.00406C11.1278 8.00406 11.3225 8.015 11.4975 8.02375C12.0116 8.04562 12.2697 8.07625 12.6087 8.88781C13.0309 9.905 14.0591 12.4163 14.1816 12.6744C14.3062 12.9325 14.4309 13.2825 14.2559 13.6216C14.0919 13.9716 13.9475 14.1269 13.6894 14.4244C13.4312 14.7219 13.1862 14.9494 12.9281 15.2688C12.6919 15.5466 12.425 15.8441 12.7225 16.3581C13.02 16.8612 14.0481 18.5391 15.5619 19.8866C17.5153 21.6256 19.0991 22.1812 19.6656 22.4175C20.0878 22.5925 20.5909 22.5509 20.8994 22.2228C21.2909 21.8006 21.7744 21.1006 22.2666 20.4116C22.6166 19.9172 23.0584 19.8559 23.5222 20.0309C23.9947 20.195 26.495 21.4309 27.0091 21.6869C27.5231 21.945 27.8622 22.0675 27.9869 22.2841C28.1094 22.5006 28.1094 23.5178 27.6872 24.7122Z" fill="white"/>
</svg>
